<svg width="698" height="309" viewBox="0 0 698 309" fill="none" xmlns="http://www.w3.org/2000/svg">
<g filter="url(#filter0_d_27_161)">
<path d="M633.31 30.6611L621.672 241.372L509.625 201.648L633.31 30.6611Z" fill="#F2C377"/>
<ellipse cx="565.408" cy="222.189" rx="59.3918" ry="10.0884" transform="rotate(19.5208 565.408 222.189)" fill="#F2C377"/>
<path d="M578.247 121.95L590.449 126.276C595.556 128.086 600.592 128.477 605.888 129.262C608.079 129.586 610.672 129.41 612.91 129.312C614.352 129.25 615.659 129.641 617.071 129.257M561.146 150.325L575.209 155.31C581.265 157.457 587.449 160.337 593.716 161.776C598.417 162.855 604.047 162.445 608.893 162.708C610.816 162.813 612.784 162.836 614.688 162.849M548.616 175.154C548.473 176.514 554.223 178.597 555.33 179.256C558.781 181.313 562.402 183.811 566.159 185.248C571.812 187.411 577.583 189.298 583.288 191.321C588.993 193.343 594.531 194.289 600.427 195.296L600.706 195.343C604.04 195.913 608.292 196.113 611.704 195.799M612.207 124.621C611.566 129.772 612.352 135.138 612.612 140.295C612.786 143.735 612.763 147.092 612.441 150.54C612.119 153.991 612.012 157.49 611.496 160.923C611.065 163.79 610.306 166.627 609.815 169.49C609.391 171.961 608.875 174.384 608.27 176.817C607.67 179.228 607.548 181.696 607.173 184.132C606.597 187.863 606.225 191.708 605.981 195.474C605.865 197.273 605.773 199.179 605.353 200.938M593.462 121.694C592.065 126.165 592.008 130.828 591.41 135.428C590.919 139.208 590.014 142.919 589.532 146.696C589.051 150.464 588.196 154.155 587.47 157.886C586.691 161.898 586.002 165.942 585.106 169.929C584.347 173.309 583.891 176.759 583.21 180.158C582.821 182.105 582.25 183.927 582.161 185.923C582.043 188.545 581.172 191.077 581.078 193.693C581.027 195.091 581.043 196.495 580.567 197.838M566.646 148.061C565.795 150.461 564.784 152.866 564.193 155.345C563.609 157.792 563.202 160.359 562.719 162.831C561.89 167.079 560.942 171.29 560.025 175.511C559.66 177.188 558.781 178.691 558.557 180.41C558.311 182.288 557.75 184.111 557.369 185.968C556.929 188.121 555.893 190.264 555.161 192.331" stroke="#CB7F5E" stroke-width="3" stroke-linecap="round"/>
</g>
<g filter="url(#filter1_d_27_161)">
<path d="M67.1206 14.3411L167.558 199.94L51.3012 224.779L67.1206 14.3411Z" fill="#F2C377"/>
<ellipse cx="109.58" cy="213.064" rx="59.3918" ry="10.0884" transform="rotate(-12.0605 109.58 213.064)" fill="#F2C377"/>
<path d="M68.0211 120.946L80.6819 118.241C85.9811 117.109 90.4757 114.805 95.3979 112.7C97.435 111.829 99.5509 110.32 101.407 109.065C102.602 108.257 103.92 107.905 104.923 106.839M68.3135 154.075L82.9043 150.957C89.1883 149.615 95.9642 148.829 102.057 146.773C106.627 145.231 111.208 141.933 115.475 139.619C117.167 138.701 118.856 137.69 120.485 136.704M70.6426 181.789C71.2332 183.023 77.222 181.785 78.5103 181.768C82.5275 181.712 86.9207 181.943 90.874 181.2C96.8223 180.083 102.726 178.668 108.646 177.403C114.566 176.138 119.778 174.044 125.329 171.814L125.591 171.708C128.73 170.447 132.457 168.392 135.198 166.337M98.3505 105.437C100.503 110.16 103.982 114.32 106.905 118.578C108.854 121.417 110.593 124.289 112.124 127.394C113.658 130.503 115.399 133.54 116.757 136.735C117.891 139.403 118.73 142.217 119.811 144.913C120.744 147.24 121.574 149.575 122.332 151.964C123.084 154.333 124.273 156.499 125.229 158.771C126.693 162.251 128.389 165.721 130.153 169.056C130.997 170.65 131.917 172.322 132.48 174.041M80.849 112.76C82.0007 117.3 84.3942 121.303 86.294 125.535C87.8552 129.012 89.0275 132.648 90.5947 136.117C92.1588 139.58 93.3628 143.172 94.699 146.73C96.1358 150.556 97.6675 154.362 98.9924 158.228C100.115 161.504 101.534 164.683 102.734 167.934C103.421 169.797 103.89 171.648 104.859 173.395C106.132 175.691 106.716 178.304 108.006 180.582C108.695 181.8 109.443 182.987 109.741 184.381M71.8136 149.266C72.3458 151.757 72.7434 154.334 73.5379 156.756C74.322 159.146 75.3201 161.546 76.2035 163.905C77.7213 167.958 79.1195 172.042 80.5483 176.118C81.1161 177.738 81.1546 179.478 81.8635 181.061C82.6377 182.789 83.1142 184.636 83.763 186.417C84.5151 188.482 84.7552 190.85 85.2133 192.994" stroke="#CB7F5E" stroke-width="3" stroke-linecap="round"/>
</g>
<g filter="url(#filter2_d_27_161)">
<ellipse cx="221.666" cy="135.614" rx="78.7242" ry="73.1579" fill="#016ED5"/>
<ellipse cx="180.316" cy="190.748" rx="37.3741" ry="18.0244" fill="#016ED5"/>
<ellipse cx="221.666" cy="203.471" rx="37.3741" ry="18.0244" fill="#016ED5"/>
<ellipse cx="267.787" cy="190.748" rx="37.3741" ry="18.0244" fill="#016ED5"/>
<ellipse cx="349.799" cy="135.614" rx="78.7242" ry="73.1579" fill="#F13A49"/>
<ellipse cx="308.448" cy="190.748" rx="37.3741" ry="18.0244" fill="#F13A49"/>
<ellipse cx="349.799" cy="203.471" rx="37.3741" ry="18.0244" fill="#F13A49"/>
<ellipse cx="395.92" cy="190.748" rx="37.3741" ry="18.0244" fill="#F13A49"/>
<ellipse cx="474.712" cy="135.614" rx="78.7242" ry="73.1579" fill="#016ED5"/>
<ellipse cx="433.362" cy="190.748" rx="37.3741" ry="18.0244" fill="#016ED5"/>
<ellipse cx="474.712" cy="203.471" rx="37.3741" ry="18.0244" fill="#016ED5"/>
<ellipse cx="520.833" cy="190.748" rx="37.3741" ry="18.0244" fill="#016ED5"/>
</g>
<path d="M237.679 157.64C240.751 158.6 242.287 160.616 242.287 163.688C242.287 166.568 240.815 168.84 237.871 170.504C234.927 172.168 229.839 173 222.607 173C213.583 173 205.839 170.824 199.375 166.472C192.975 162.12 189.775 153.48 189.775 140.552C189.775 134.024 190.895 128.136 193.135 122.888C195.375 117.64 198.703 113.48 203.119 110.408C207.599 107.336 213.071 105.8 219.535 105.8C228.175 105.8 234.255 107.144 237.775 109.832C241.295 112.456 243.055 115.688 243.055 119.528C243.055 121.32 242.607 122.984 241.711 124.52C240.815 125.992 239.471 127.144 237.679 127.976C236.143 128.744 234.159 129.128 231.727 129.128L229.135 129.032C228.623 128.968 227.887 128.936 226.927 128.936C223.599 128.936 220.975 129.544 219.055 130.76C217.135 131.912 215.823 133.704 215.119 136.136C217.807 136.008 220.239 135.944 222.415 135.944C228.879 135.944 233.071 136.136 234.991 136.52C237.167 136.968 238.831 137.832 239.983 139.112C241.199 140.392 241.807 141.896 241.807 143.624C241.807 145.352 241.231 146.856 240.079 148.136C238.927 149.352 237.199 150.184 234.895 150.632C233.103 151.016 228.751 151.208 221.839 151.208C219.023 151.208 217.039 151.176 215.887 151.112C217.871 155.336 221.583 157.448 227.023 157.448C227.343 157.448 228.079 157.384 229.231 157.256C230.767 157.128 232.079 157.064 233.167 157.064C235.023 157.064 236.527 157.256 237.679 157.64ZM282.46 173C276.316 173 270.588 170.28 265.276 164.84C259.964 159.4 255.74 152.744 252.604 144.872C249.468 136.936 247.9 129.576 247.9 122.792C247.9 117.864 248.988 113.832 251.164 110.696C253.34 107.496 256.572 105.896 260.86 105.896C264.38 105.896 267.26 107.24 269.5 109.928C271.804 112.616 273.596 115.912 274.876 119.816C276.156 123.656 277.532 128.712 279.004 134.984C280.348 140.872 281.5 145.224 282.46 148.04C283.292 146.056 284.092 143.688 284.86 140.936C285.628 138.184 286.332 135.464 286.972 132.776C288.444 126.888 289.788 122.152 291.004 118.568C292.284 114.984 293.948 111.976 295.996 109.544C298.044 107.112 300.636 105.896 303.772 105.896C308.06 105.896 311.292 107.432 313.468 110.504C315.644 113.576 316.732 117.672 316.732 122.792C316.732 129.576 315.196 136.936 312.124 144.872C309.052 152.744 304.86 159.4 299.548 164.84C294.3 170.28 288.604 173 282.46 173ZM367.523 157.64C370.595 158.6 372.131 160.616 372.131 163.688C372.131 166.568 370.659 168.84 367.715 170.504C364.771 172.168 359.683 173 352.451 173C343.427 173 335.683 170.824 329.219 166.472C322.819 162.12 319.619 153.48 319.619 140.552C319.619 134.024 320.739 128.136 322.979 122.888C325.219 117.64 328.547 113.48 332.963 110.408C337.443 107.336 342.915 105.8 349.379 105.8C358.019 105.8 364.099 107.144 367.619 109.832C371.139 112.456 372.899 115.688 372.899 119.528C372.899 121.32 372.451 122.984 371.555 124.52C370.659 125.992 369.315 127.144 367.523 127.976C365.987 128.744 364.003 129.128 361.571 129.128L358.979 129.032C358.467 128.968 357.731 128.936 356.771 128.936C353.443 128.936 350.819 129.544 348.899 130.76C346.979 131.912 345.667 133.704 344.963 136.136C347.651 136.008 350.083 135.944 352.259 135.944C358.723 135.944 362.915 136.136 364.835 136.52C367.011 136.968 368.675 137.832 369.827 139.112C371.043 140.392 371.651 141.896 371.651 143.624C371.651 145.352 371.075 146.856 369.923 148.136C368.771 149.352 367.043 150.184 364.739 150.632C362.947 151.016 358.595 151.208 351.683 151.208C348.867 151.208 346.883 151.176 345.731 151.112C347.715 155.336 351.427 157.448 356.867 157.448C357.187 157.448 357.923 157.384 359.075 157.256C360.611 157.128 361.923 157.064 363.011 157.064C364.867 157.064 366.371 157.256 367.523 157.64ZM387.894 173C384.758 173 382.198 171.08 380.214 167.24C378.294 163.4 376.918 158.76 376.086 153.32C375.254 147.88 374.838 142.632 374.838 137.576C374.838 129.32 376.15 121.992 378.773 115.592C381.462 109.128 385.942 105.896 392.214 105.896C394.966 105.896 397.366 106.952 399.414 109.064C401.526 111.176 403.35 113.928 404.886 117.32C406.422 120.648 408.278 125.288 410.454 131.24L412.086 135.752C411.958 133.32 411.894 131.528 411.894 130.376C411.894 122.888 412.886 116.936 414.87 112.52C416.918 108.104 420.15 105.896 424.566 105.896C429.878 105.896 433.526 109.064 435.51 115.4C437.494 121.672 438.486 129.064 438.486 137.576C438.486 142.632 437.846 147.88 436.566 153.32C435.35 158.76 433.27 163.4 430.326 167.24C427.382 171.08 423.542 173 418.806 173C415.926 173 413.398 171.976 411.222 169.928C409.11 167.816 407.318 165.224 405.846 162.152C404.438 159.08 402.742 154.856 400.758 149.48C399.734 146.664 398.934 144.552 398.358 143.144L398.454 150.92C398.454 155.976 398.198 160.072 397.686 163.208C397.174 166.28 396.15 168.68 394.614 170.408C393.142 172.136 390.902 173 387.894 173ZM508.241 120.104C508.241 124.328 506.481 127.4 502.961 129.32C499.505 131.176 493.841 132.296 485.969 132.68C486.225 135.752 486.353 139.72 486.353 144.584C486.353 151.368 485.969 156.808 485.201 160.904C484.497 164.936 483.249 167.944 481.457 169.928C479.665 171.848 477.169 172.808 473.969 172.808C470.833 172.808 468.433 171.784 466.769 169.736C465.105 167.688 463.953 164.648 463.313 160.616C462.673 156.584 462.353 151.24 462.353 144.584C462.353 140.104 462.449 136.136 462.641 132.68C457.329 132.424 453.041 131.88 449.777 131.048C446.577 130.152 444.209 128.84 442.673 127.112C441.137 125.384 440.369 123.048 440.369 120.104C440.369 116.52 441.585 113.704 444.017 111.656C446.449 109.608 450.097 108.168 454.961 107.336C459.825 106.504 466.193 106.088 474.065 106.088C482.001 106.088 488.433 106.504 493.361 107.336C498.289 108.168 502.001 109.608 504.497 111.656C506.993 113.704 508.241 116.52 508.241 120.104Z" fill="white"/>
<defs>
<filter id="filter0_d_27_161" x="502.327" y="29.6611" width="139.983" height="229.539" filterUnits="userSpaceOnUse" color-interpolation-filters="sRGB">
<feFlood flood-opacity="0" result="BackgroundImageFix"/>
<feColorMatrix in="SourceAlpha" type="matrix" values="0 0 0 0 0 0 0 0 0 0 0 0 0 0 0 0 0 0 127 0" result="hardAlpha"/>
<feOffset dx="1" dy="7"/>
<feGaussianBlur stdDeviation="4"/>
<feComposite in2="hardAlpha" operator="out"/>
<feColorMatrix type="matrix" values="0 0 0 0 0 0 0 0 0 0 0 0 0 0 0 0 0 0 0.48 0"/>
<feBlend mode="normal" in2="BackgroundImageFix" result="effect1_dropShadow_27_161"/>
<feBlend mode="normal" in="SourceGraphic" in2="effect1_dropShadow_27_161" result="shape"/>
</filter>
<filter id="filter1_d_27_161" x="44.3012" y="13.3411" width="132.399" height="230.577" filterUnits="userSpaceOnUse" color-interpolation-filters="sRGB">
<feFlood flood-opacity="0" result="BackgroundImageFix"/>
<feColorMatrix in="SourceAlpha" type="matrix" values="0 0 0 0 0 0 0 0 0 0 0 0 0 0 0 0 0 0 127 0" result="hardAlpha"/>
<feOffset dx="1" dy="7"/>
<feGaussianBlur stdDeviation="4"/>
<feComposite in2="hardAlpha" operator="out"/>
<feColorMatrix type="matrix" values="0 0 0 0 0 0 0 0 0 0 0 0 0 0 0 0 0 0 0.48 0"/>
<feBlend mode="normal" in2="BackgroundImageFix" result="effect1_dropShadow_27_161"/>
<feBlend mode="normal" in="SourceGraphic" in2="effect1_dropShadow_27_161" result="shape"/>
</filter>
<filter id="filter2_d_27_161" x="135.942" y="61.4565" width="431.265" height="175.039" filterUnits="userSpaceOnUse" color-interpolation-filters="sRGB">
<feFlood flood-opacity="0" result="BackgroundImageFix"/>
<feColorMatrix in="SourceAlpha" type="matrix" values="0 0 0 0 0 0 0 0 0 0 0 0 0 0 0 0 0 0 127 0" result="hardAlpha"/>
<feOffset dx="1" dy="7"/>
<feGaussianBlur stdDeviation="4"/>
<feComposite in2="hardAlpha" operator="out"/>
<feColorMatrix type="matrix" values="0 0 0 0 0 0 0 0 0 0 0 0 0 0 0 0 0 0 0.48 0"/>
<feBlend mode="normal" in2="BackgroundImageFix" result="effect1_dropShadow_27_161"/>
<feBlend mode="normal" in="SourceGraphic" in2="effect1_dropShadow_27_161" result="shape"/>
</filter>
</defs>
</svg>
