<svg width="50" height="44" viewBox="0 0 50 44" fill="none" xmlns="http://www.w3.org/2000/svg">
<g clip-path="url(#clip0_34_7)">
<path d="M25.0111 12.1172C17.9129 12.1172 12.1874 16.5258 12.1874 21.9914C12.1874 27.4571 17.9129 31.8656 25.0111 31.8656C32.1093 31.8656 37.8348 27.4571 37.8348 21.9914C37.8348 16.5258 32.1093 12.1172 25.0111 12.1172ZM25.0111 28.411C20.4241 28.411 16.6741 25.5321 16.6741 21.9914C16.6741 18.4508 20.4129 15.5719 25.0111 15.5719C29.6093 15.5719 33.3482 18.4508 33.3482 21.9914C33.3482 25.5321 29.5982 28.411 25.0111 28.411ZM41.3504 11.7133C41.3504 12.9938 40.0111 14.0164 38.3593 14.0164C36.6964 14.0164 35.3683 12.9852 35.3683 11.7133C35.3683 10.4414 36.7075 9.41018 38.3593 9.41018C40.0111 9.41018 41.3504 10.4414 41.3504 11.7133ZM49.8437 14.0508C49.654 10.9656 48.7388 8.23284 45.8035 5.98127C42.8794 3.72971 39.3303 3.02502 35.3236 2.87034C31.1941 2.68987 18.8169 2.68987 14.6874 2.87034C10.6919 3.01643 7.1428 3.72112 4.20754 5.97268C1.27227 8.22424 0.368251 10.9571 0.167358 14.0422C-0.0670166 17.2219 -0.0670166 26.7524 0.167358 29.9321C0.357091 33.0172 1.27227 35.75 4.20754 38.0016C7.1428 40.2532 10.6808 40.9578 14.6874 41.1125C18.8169 41.293 31.1941 41.293 35.3236 41.1125C39.3303 40.9664 42.8794 40.2617 45.8035 38.0016C48.7276 35.75 49.6428 33.0172 49.8437 29.9321C50.0781 26.7524 50.0781 17.2305 49.8437 14.0508ZM44.5089 33.3438C43.6383 35.0281 41.9531 36.3258 39.7544 37.0047C36.462 38.0102 28.6495 37.7781 25.0111 37.7781C21.3727 37.7781 13.5491 38.0016 10.2678 37.0047C8.0803 36.3344 6.39504 35.0367 5.51334 33.3438C4.20754 30.8086 4.50888 24.793 4.50888 21.9914C4.50888 19.1899 4.2187 13.1656 5.51334 10.6391C6.38388 8.95471 8.06914 7.65706 10.2678 6.97815C13.5602 5.97268 21.3727 6.20471 25.0111 6.20471C28.6495 6.20471 36.4732 5.98127 39.7544 6.97815C41.9419 7.64846 43.6272 8.94612 44.5089 10.6391C45.8147 13.1742 45.5133 19.1899 45.5133 21.9914C45.5133 24.793 45.8147 30.8172 44.5089 33.3438Z" fill="black"/>
</g>
<defs>
<clipPath id="clip0_34_7">
<rect width="50" height="44" fill="white"/>
</clipPath>
</defs>
</svg>
