<svg width="58" height="43" viewBox="0 0 58 43" fill="none" xmlns="http://www.w3.org/2000/svg">
<path d="M52.5625 0H5.4375C2.43441 0 0 2.39524 0 5.35V37.45C0 40.4048 2.43441 42.8 5.4375 42.8H52.5625C55.5656 42.8 58 40.4048 58 37.45V5.35C58 2.39524 55.5656 0 52.5625 0ZM52.5625 5.35V9.89806C50.0225 11.9332 45.9732 15.0977 37.3163 21.7673C35.4085 23.2437 31.6295 26.7909 29 26.7496C26.371 26.7914 22.5907 23.2432 20.6837 21.7673C12.0282 15.0987 7.97783 11.9335 5.4375 9.89806V5.35H52.5625ZM5.4375 37.45V16.7631C8.03323 18.7973 11.7143 21.6519 17.325 25.9747C19.801 27.8923 24.1371 32.1256 29 32.0999C33.839 32.1256 38.1202 27.9538 40.674 25.9756C46.2846 21.6529 49.9667 18.7976 52.5625 16.7632V37.45H5.4375Z" fill="black"/>
</svg>
