<svg width="179" height="179" viewBox="0 0 179 179" fill="none" xmlns="http://www.w3.org/2000/svg">
<path d="M89.52 43.6067C64.1225 43.6067 43.6369 64.0969 43.6369 89.5C43.6369 114.903 64.1225 135.393 89.52 135.393C114.917 135.393 135.403 114.903 135.403 89.5C135.403 64.0969 114.917 43.6067 89.52 43.6067ZM89.52 119.337C73.1075 119.337 59.69 105.956 59.69 89.5C59.69 73.0439 73.0675 59.6633 89.52 59.6633C105.972 59.6633 119.35 73.0439 119.35 89.5C119.35 105.956 105.932 119.337 89.52 119.337ZM147.982 41.7294C147.982 47.6807 143.19 52.4338 137.28 52.4338C131.33 52.4338 126.578 47.6408 126.578 41.7294C126.578 35.818 131.37 31.0249 137.28 31.0249C143.19 31.0249 147.982 35.818 147.982 41.7294ZM178.371 52.5936C177.692 38.2544 174.418 25.5529 163.915 15.0881C153.453 4.62328 140.754 1.34804 126.418 0.629086C111.643 -0.209695 67.3571 -0.209695 52.5819 0.629086C38.2858 1.3081 25.5871 4.58334 15.0847 15.0481C4.58232 25.5129 1.34774 38.2145 0.628946 52.5537C-0.209649 67.3322 -0.209649 111.628 0.628946 126.406C1.30781 140.746 4.58232 153.447 15.0847 163.912C25.5871 174.377 38.2459 177.652 52.5819 178.371C67.3571 179.21 111.643 179.21 126.418 178.371C140.754 177.692 153.453 174.417 163.915 163.912C174.378 153.447 177.652 140.746 178.371 126.406C179.21 111.628 179.21 67.3721 178.371 52.5936ZM159.283 142.263C156.168 150.092 150.138 156.123 142.272 159.279C130.491 163.952 102.538 162.873 89.52 162.873C76.5018 162.873 48.5087 163.912 36.7684 159.279C28.9415 156.163 22.9116 150.132 19.7569 142.263C15.0847 130.48 16.1629 102.521 16.1629 89.5C16.1629 76.4789 15.1247 48.4796 19.7569 36.7366C22.8717 28.908 28.9016 22.8768 36.7684 19.7214C48.5486 15.0481 76.5018 16.1266 89.52 16.1266C102.538 16.1266 130.531 15.0881 142.272 19.7214C150.098 22.8368 156.128 28.8681 159.283 36.7366C163.955 48.5195 162.877 76.4789 162.877 89.5C162.877 102.521 163.955 130.52 159.283 142.263Z" fill="black"/>
</svg>
