<svg width="50" height="41" viewBox="0 0 50 41" fill="none" xmlns="http://www.w3.org/2000/svg">
<path d="M50 20.2366C50 9.05902 38.8086 0 25 0C11.1914 0 0 9.05902 0 20.2366C0 29.7225 8.07617 37.6906 18.9648 39.8803V26.4182H13.8086V20.2366H18.9648V17.5726C18.9648 10.6874 22.8125 7.49385 31.1719 7.49385C32.7539 7.49385 35.4883 7.74681 36.6113 7.99977V13.5964C36.0254 13.549 35 13.5174 33.7207 13.5174C29.6191 13.5174 28.0371 14.7743 28.0371 18.039V20.2366H36.2012L34.7949 26.4182H28.0273V40.3229C40.4102 39.1135 50 30.5841 50 20.2366Z" fill="black"/>
</svg>
